<?xml version="1.0" encoding="UTF-8" standalone="no"?>
<!DOCTYPE svg PUBLIC "-//W3C//DTD SVG 1.1//EN"
 "http://www.w3.org/Graphics/SVG/1.1/DTD/svg11.dtd">
<!-- Generated by graphviz version 2.34.0 (20131023.0131)
 -->
<!-- Title: controllers_diagram Pages: 1 -->
<svg width="666pt" height="486pt"
 viewBox="0.00 0.00 666.00 486.27" xmlns="http://www.w3.org/2000/svg" xmlns:xlink="http://www.w3.org/1999/xlink">
<g id="graph0" class="graph" transform="scale(1 1) rotate(0) translate(4 482.269)">
<title>controllers_diagram</title>
<polygon fill="white" stroke="white" points="-4,4 -4,-482.269 662,-482.269 662,4 -4,4"/>
<!-- _diagram_info -->
<g id="node1" class="node"><title>_diagram_info</title>
<text text-anchor="start" x="452" y="-322.6" font-family="Times,serif" font-size="13.00">Controllers diagram</text>
<text text-anchor="start" x="452" y="-308.6" font-family="Times,serif" font-size="13.00">Date: Dec 16 2013 &#45; 00:23</text>
<text text-anchor="start" x="452" y="-294.6" font-family="Times,serif" font-size="13.00">Migration version: 20131027125155</text>
<text text-anchor="start" x="452" y="-280.6" font-family="Times,serif" font-size="13.00">Generated by RailRoady 1.1.1</text>
<text text-anchor="start" x="452" y="-266.6" font-family="Times,serif" font-size="13.00">http://railroady.prestonlee.com</text>
</g>
<!-- BeersController -->
<g id="node2" class="node"><title>BeersController</title>
<path fill="none" stroke="black" d="M12,-124.647C12,-124.647 95,-124.647 95,-124.647 101,-124.647 107,-130.647 107,-136.647 107,-136.647 107,-295.647 107,-295.647 107,-301.647 101,-307.647 95,-307.647 95,-307.647 12,-307.647 12,-307.647 6,-307.647 0,-301.647 0,-295.647 0,-295.647 0,-136.647 0,-136.647 0,-130.647 6,-124.647 12,-124.647"/>
<text text-anchor="middle" x="53.5" y="-292.447" font-family="Times,serif" font-size="14.00">BeersController</text>
<polyline fill="none" stroke="black" points="0,-284.647 107,-284.647 "/>
<text text-anchor="start" x="8" y="-269.447" font-family="Times,serif" font-size="14.00">create</text>
<text text-anchor="start" x="8" y="-254.447" font-family="Times,serif" font-size="14.00">destroy</text>
<text text-anchor="start" x="8" y="-239.447" font-family="Times,serif" font-size="14.00">edit</text>
<text text-anchor="start" x="8" y="-224.447" font-family="Times,serif" font-size="14.00">index</text>
<text text-anchor="start" x="8" y="-209.447" font-family="Times,serif" font-size="14.00">new</text>
<text text-anchor="start" x="8" y="-194.447" font-family="Times,serif" font-size="14.00">show</text>
<text text-anchor="start" x="8" y="-179.447" font-family="Times,serif" font-size="14.00">update</text>
<polyline fill="none" stroke="black" points="0,-171.647 107,-171.647 "/>
<polyline fill="none" stroke="black" points="0,-147.647 107,-147.647 "/>
<text text-anchor="start" x="8" y="-132.447" font-family="Times,serif" font-size="14.00">_layout</text>
</g>
<!-- ApplicationController -->
<g id="node3" class="node"><title>ApplicationController</title>
<path fill="none" stroke="black" d="M147.085,-192.5C147.085,-192.5 325.085,-192.5 325.085,-192.5 331.085,-192.5 337.085,-198.5 337.085,-204.5 337.085,-204.5 337.085,-273.5 337.085,-273.5 337.085,-279.5 331.085,-285.5 325.085,-285.5 325.085,-285.5 147.085,-285.5 147.085,-285.5 141.085,-285.5 135.085,-279.5 135.085,-273.5 135.085,-273.5 135.085,-204.5 135.085,-204.5 135.085,-198.5 141.085,-192.5 147.085,-192.5"/>
<text text-anchor="middle" x="236.085" y="-270.3" font-family="Times,serif" font-size="14.00">ApplicationController</text>
<polyline fill="none" stroke="black" points="135.085,-262.5 337.085,-262.5 "/>
<text text-anchor="start" x="143.085" y="-247.3" font-family="Times,serif" font-size="14.00">_one_time_conditions_valid_8?</text>
<polyline fill="none" stroke="black" points="135.085,-239.5 337.085,-239.5 "/>
<polyline fill="none" stroke="black" points="135.085,-215.5 337.085,-215.5 "/>
<text text-anchor="start" x="143.085" y="-200.3" font-family="Times,serif" font-size="14.00">_layout</text>
</g>
<!-- ApplicationController&#45;&gt;BeersController -->
<g id="edge1" class="edge"><title>ApplicationController&#45;&gt;BeersController</title>
<path fill="none" stroke="black" d="M134.914,-226.337C127.159,-225.366 119.501,-224.408 112.166,-223.49"/>
<polyline fill="none" stroke="black" points="107.142,-222.861 112.103,-223.482 "/>
</g>
<!-- BreweriesController -->
<g id="node4" class="node"><title>BreweriesController</title>
<path fill="none" stroke="black" d="M293.103,-0.5C293.103,-0.5 400.103,-0.5 400.103,-0.5 406.103,-0.5 412.103,-6.5 412.103,-12.5 412.103,-12.5 412.103,-171.5 412.103,-171.5 412.103,-177.5 406.103,-183.5 400.103,-183.5 400.103,-183.5 293.103,-183.5 293.103,-183.5 287.103,-183.5 281.103,-177.5 281.103,-171.5 281.103,-171.5 281.103,-12.5 281.103,-12.5 281.103,-6.5 287.103,-0.5 293.103,-0.5"/>
<text text-anchor="middle" x="346.603" y="-168.3" font-family="Times,serif" font-size="14.00">BreweriesController</text>
<polyline fill="none" stroke="black" points="281.103,-160.5 412.103,-160.5 "/>
<text text-anchor="start" x="289.103" y="-145.3" font-family="Times,serif" font-size="14.00">create</text>
<text text-anchor="start" x="289.103" y="-130.3" font-family="Times,serif" font-size="14.00">destroy</text>
<text text-anchor="start" x="289.103" y="-115.3" font-family="Times,serif" font-size="14.00">edit</text>
<text text-anchor="start" x="289.103" y="-100.3" font-family="Times,serif" font-size="14.00">index</text>
<text text-anchor="start" x="289.103" y="-85.3" font-family="Times,serif" font-size="14.00">new</text>
<text text-anchor="start" x="289.103" y="-70.3" font-family="Times,serif" font-size="14.00">show</text>
<text text-anchor="start" x="289.103" y="-55.3" font-family="Times,serif" font-size="14.00">update</text>
<polyline fill="none" stroke="black" points="281.103,-47.5 412.103,-47.5 "/>
<polyline fill="none" stroke="black" points="281.103,-23.5 412.103,-23.5 "/>
<text text-anchor="start" x="289.103" y="-8.3" font-family="Times,serif" font-size="14.00">_layout</text>
</g>
<!-- ApplicationController&#45;&gt;BreweriesController -->
<g id="edge2" class="edge"><title>ApplicationController&#45;&gt;BreweriesController</title>
<path fill="none" stroke="black" d="M271.054,-192.488C273.271,-189.539 275.539,-186.522 277.84,-183.462"/>
<polyline fill="none" stroke="black" points="280.997,-179.262 277.992,-183.259 "/>
</g>
<!-- RatingsController -->
<g id="node5" class="node"><title>RatingsController</title>
<path fill="none" stroke="black" d="M259.341,-339.769C259.341,-339.769 354.341,-339.769 354.341,-339.769 360.341,-339.769 366.341,-345.769 366.341,-351.769 366.341,-351.769 366.341,-465.769 366.341,-465.769 366.341,-471.769 360.341,-477.769 354.341,-477.769 354.341,-477.769 259.341,-477.769 259.341,-477.769 253.341,-477.769 247.341,-471.769 247.341,-465.769 247.341,-465.769 247.341,-351.769 247.341,-351.769 247.341,-345.769 253.341,-339.769 259.341,-339.769"/>
<text text-anchor="middle" x="306.841" y="-462.569" font-family="Times,serif" font-size="14.00">RatingsController</text>
<polyline fill="none" stroke="black" points="247.341,-454.769 366.341,-454.769 "/>
<text text-anchor="start" x="255.341" y="-439.569" font-family="Times,serif" font-size="14.00">create</text>
<text text-anchor="start" x="255.341" y="-424.569" font-family="Times,serif" font-size="14.00">destroy</text>
<text text-anchor="start" x="255.341" y="-409.569" font-family="Times,serif" font-size="14.00">index</text>
<text text-anchor="start" x="255.341" y="-394.569" font-family="Times,serif" font-size="14.00">new</text>
<polyline fill="none" stroke="black" points="247.341,-386.769 366.341,-386.769 "/>
<polyline fill="none" stroke="black" points="247.341,-362.769 366.341,-362.769 "/>
<text text-anchor="start" x="255.341" y="-347.569" font-family="Times,serif" font-size="14.00">_layout</text>
</g>
<!-- ApplicationController&#45;&gt;RatingsController -->
<g id="edge3" class="edge"><title>ApplicationController&#45;&gt;RatingsController</title>
<path fill="none" stroke="black" d="M255.607,-285.839C261.926,-301.001 269.095,-318.203 276.027,-334.836"/>
<polyline fill="none" stroke="black" points="277.975,-339.51 276.052,-334.894 "/>
</g>
</g>
</svg>
