<?xml version="1.0" encoding="UTF-8" standalone="no"?>
<!DOCTYPE svg PUBLIC "-//W3C//DTD SVG 1.1//EN"
 "http://www.w3.org/Graphics/SVG/1.1/DTD/svg11.dtd">
<!-- Generated by graphviz version 2.34.0 (20131023.0131)
 -->
<!-- Title: models_diagram Pages: 1 -->
<svg width="408pt" height="302pt"
 viewBox="0.00 0.00 408.00 302.00" xmlns="http://www.w3.org/2000/svg" xmlns:xlink="http://www.w3.org/1999/xlink">
<g id="graph0" class="graph" transform="scale(1 1) rotate(0) translate(4 298)">
<title>models_diagram</title>
<polygon fill="white" stroke="white" points="-4,4 -4,-298 404,-298 404,4 -4,4"/>
<!-- _diagram_info -->
<g id="node1" class="node"><title>_diagram_info</title>
<text text-anchor="start" x="8" y="-279.6" font-family="Times,serif" font-size="13.00">Models diagram</text>
<text text-anchor="start" x="8" y="-265.6" font-family="Times,serif" font-size="13.00">Date: Dec 16 2013 &#45; 00:23</text>
<text text-anchor="start" x="8" y="-251.6" font-family="Times,serif" font-size="13.00">Migration version: 20131027125155</text>
<text text-anchor="start" x="8" y="-237.6" font-family="Times,serif" font-size="13.00">Generated by RailRoady 1.1.1</text>
<text text-anchor="start" x="8" y="-223.6" font-family="Times,serif" font-size="13.00">http://railroady.prestonlee.com</text>
</g>
<!-- Brewery -->
<g id="node2" class="node"><title>Brewery</title>
<ellipse fill="none" stroke="black" cx="246" cy="-162" rx="42.3701" ry="18"/>
<text text-anchor="middle" x="246" y="-158.3" font-family="Times,serif" font-size="14.00">Brewery</text>
</g>
<!-- Beer -->
<g id="node3" class="node"><title>Beer</title>
<ellipse fill="none" stroke="black" cx="298" cy="-90" rx="27.4223" ry="18"/>
<text text-anchor="middle" x="298" y="-86.3" font-family="Times,serif" font-size="14.00">Beer</text>
</g>
<!-- Brewery&#45;&gt;Beer -->
<g id="edge1" class="edge"><title>Brewery&#45;&gt;Beer</title>
<path fill="none" stroke="#a98567" d="M263.154,-137.908C268.657,-130.5 274.76,-122.285 280.301,-114.826"/>
<ellipse fill="none" stroke="#a98567" cx="260.709" cy="-141.2" rx="4.00002" ry="4.00002"/>
<polygon fill="#a98567" stroke="#a98567" points="280.514,-114.538 290.09,-109.194 283.496,-110.525 286.478,-106.511 286.478,-106.511 286.478,-106.511 283.496,-110.525 282.865,-103.827 280.514,-114.538 280.514,-114.538"/>
</g>
<!-- Rating -->
<g id="node4" class="node"><title>Rating</title>
<ellipse fill="none" stroke="black" cx="326" cy="-18" rx="35.6194" ry="18"/>
<text text-anchor="middle" x="326" y="-14.3" font-family="Times,serif" font-size="14.00">Rating</text>
</g>
<!-- Beer&#45;&gt;Rating -->
<g id="edge3" class="edge"><title>Beer&#45;&gt;Rating</title>
<path fill="none" stroke="#998600" d="M307.689,-64.7779C310.182,-58.544 312.878,-51.8046 315.415,-45.4634"/>
<ellipse fill="none" stroke="#998600" cx="306.121" cy="-68.6971" rx="4.00001" ry="4.00001"/>
<polygon fill="#998600" stroke="#998600" points="315.504,-45.241 323.396,-37.6275 317.361,-40.5986 319.218,-35.9562 319.218,-35.9562 319.218,-35.9562 317.361,-40.5986 315.039,-34.2849 315.504,-45.241 315.504,-45.241"/>
</g>
<!-- ActiveRecord::Base -->
<g id="node5" class="node"><title>ActiveRecord::Base</title>
<ellipse fill="none" stroke="black" cx="316" cy="-255" rx="84.2388" ry="18"/>
<text text-anchor="middle" x="316" y="-251.3" font-family="Times,serif" font-size="14.00">ActiveRecord::Base</text>
</g>
<!-- ActiveRecord::Base&#45;&gt;Brewery -->
<g id="edge2" class="edge"><title>ActiveRecord::Base&#45;&gt;Brewery</title>
<path fill="none" stroke="black" d="M302.834,-236.884C291.249,-221.824 274.352,-199.858 261.993,-183.791"/>
<polyline fill="none" stroke="black" points="258.636,-179.427 261.685,-183.39 "/>
</g>
<!-- ActiveRecord::Base&#45;&gt;Beer -->
<g id="edge4" class="edge"><title>ActiveRecord::Base&#45;&gt;Beer</title>
<path fill="none" stroke="black" d="M314.108,-236.864C310.835,-207.226 304.119,-146.409 300.478,-113.44"/>
<polyline fill="none" stroke="black" points="299.921,-108.397 300.47,-113.367 "/>
</g>
<!-- ActiveRecord::Base&#45;&gt;Rating -->
<g id="edge5" class="edge"><title>ActiveRecord::Base&#45;&gt;Rating</title>
<path fill="none" stroke="black" d="M319.668,-236.961C326.156,-204.771 338.562,-132.792 334,-72 333.236,-61.8215 331.658,-50.6354 330.104,-41.1737"/>
<polyline fill="none" stroke="black" points="329.248,-36.1119 330.082,-41.042 "/>
</g>
</g>
</svg>
