<?xml version="1.0" encoding="UTF-8" standalone="no"?>
<!DOCTYPE svg PUBLIC "-//W3C//DTD SVG 1.1//EN"
 "http://www.w3.org/Graphics/SVG/1.1/DTD/svg11.dtd">
<!-- Generated by graphviz version 2.34.0 (20131023.0131)
 -->
<!-- Title: models_diagram Pages: 1 -->
<svg width="408pt" height="532pt"
 viewBox="0.00 0.00 408.00 532.00" xmlns="http://www.w3.org/2000/svg" xmlns:xlink="http://www.w3.org/1999/xlink">
<g id="graph0" class="graph" transform="scale(1 1) rotate(0) translate(4 528)">
<title>models_diagram</title>
<polygon fill="white" stroke="white" points="-4,4 -4,-528 404,-528 404,4 -4,4"/>
<!-- _diagram_info -->
<g id="node1" class="node"><title>_diagram_info</title>
<text text-anchor="start" x="8" y="-509.6" font-family="Times,serif" font-size="13.00">Models diagram</text>
<text text-anchor="start" x="8" y="-495.6" font-family="Times,serif" font-size="13.00">Date: Dec 16 2013 &#45; 00:23</text>
<text text-anchor="start" x="8" y="-481.6" font-family="Times,serif" font-size="13.00">Migration version: 20131027125155</text>
<text text-anchor="start" x="8" y="-467.6" font-family="Times,serif" font-size="13.00">Generated by RailRoady 1.1.1</text>
<text text-anchor="start" x="8" y="-453.6" font-family="Times,serif" font-size="13.00">http://railroady.prestonlee.com</text>
</g>
<!-- Brewery -->
<g id="node2" class="node"><title>Brewery</title>
<path fill="none" stroke="black" d="M164.5,-303C164.5,-303 275.5,-303 275.5,-303 281.5,-303 287.5,-309 287.5,-315 287.5,-315 287.5,-397 287.5,-397 287.5,-403 281.5,-409 275.5,-409 275.5,-409 164.5,-409 164.5,-409 158.5,-409 152.5,-403 152.5,-397 152.5,-397 152.5,-315 152.5,-315 152.5,-309 158.5,-303 164.5,-303"/>
<text text-anchor="middle" x="220" y="-393.8" font-family="Times,serif" font-size="14.00">Brewery</text>
<polyline fill="none" stroke="black" points="152.5,-386 287.5,-386 "/>
<text text-anchor="start" x="160.5" y="-370.8" font-family="Times,serif" font-size="14.00">id :integer</text>
<text text-anchor="start" x="160.5" y="-355.8" font-family="Times,serif" font-size="14.00">name :string</text>
<text text-anchor="start" x="160.5" y="-340.8" font-family="Times,serif" font-size="14.00">year :integer</text>
<text text-anchor="start" x="160.5" y="-325.8" font-family="Times,serif" font-size="14.00">created_at :datetime</text>
<text text-anchor="start" x="160.5" y="-310.8" font-family="Times,serif" font-size="14.00">updated_at :datetime</text>
</g>
<!-- Beer -->
<g id="node3" class="node"><title>Beer</title>
<path fill="none" stroke="black" d="M202.5,-144.5C202.5,-144.5 313.5,-144.5 313.5,-144.5 319.5,-144.5 325.5,-150.5 325.5,-156.5 325.5,-156.5 325.5,-253.5 325.5,-253.5 325.5,-259.5 319.5,-265.5 313.5,-265.5 313.5,-265.5 202.5,-265.5 202.5,-265.5 196.5,-265.5 190.5,-259.5 190.5,-253.5 190.5,-253.5 190.5,-156.5 190.5,-156.5 190.5,-150.5 196.5,-144.5 202.5,-144.5"/>
<text text-anchor="middle" x="258" y="-250.3" font-family="Times,serif" font-size="14.00">Beer</text>
<polyline fill="none" stroke="black" points="190.5,-242.5 325.5,-242.5 "/>
<text text-anchor="start" x="198.5" y="-227.3" font-family="Times,serif" font-size="14.00">id :integer</text>
<text text-anchor="start" x="198.5" y="-212.3" font-family="Times,serif" font-size="14.00">name :string</text>
<text text-anchor="start" x="198.5" y="-197.3" font-family="Times,serif" font-size="14.00">style :string</text>
<text text-anchor="start" x="198.5" y="-182.3" font-family="Times,serif" font-size="14.00">brewery_id :integer</text>
<text text-anchor="start" x="198.5" y="-167.3" font-family="Times,serif" font-size="14.00">created_at :datetime</text>
<text text-anchor="start" x="198.5" y="-152.3" font-family="Times,serif" font-size="14.00">updated_at :datetime</text>
</g>
<!-- Brewery&#45;&gt;Beer -->
<g id="edge1" class="edge"><title>Brewery&#45;&gt;Beer</title>
<path fill="none" stroke="#d938c1" d="M235.327,-294.904C236.936,-288.594 238.581,-282.141 240.215,-275.735"/>
<ellipse fill="none" stroke="#d938c1" cx="234.279" cy="-299.011" rx="4.00001" ry="4.00001"/>
<polygon fill="#d938c1" stroke="#d938c1" points="240.294,-275.425 247.126,-266.848 241.53,-270.58 242.765,-265.735 242.765,-265.735 242.765,-265.735 241.53,-270.58 238.405,-264.623 240.294,-275.425 240.294,-275.425"/>
</g>
<!-- Rating -->
<g id="node4" class="node"><title>Rating</title>
<path fill="none" stroke="black" d="M250.5,-1C250.5,-1 361.5,-1 361.5,-1 367.5,-1 373.5,-7 373.5,-13 373.5,-13 373.5,-95 373.5,-95 373.5,-101 367.5,-107 361.5,-107 361.5,-107 250.5,-107 250.5,-107 244.5,-107 238.5,-101 238.5,-95 238.5,-95 238.5,-13 238.5,-13 238.5,-7 244.5,-1 250.5,-1"/>
<text text-anchor="middle" x="306" y="-91.8" font-family="Times,serif" font-size="14.00">Rating</text>
<polyline fill="none" stroke="black" points="238.5,-84 373.5,-84 "/>
<text text-anchor="start" x="246.5" y="-68.8" font-family="Times,serif" font-size="14.00">id :integer</text>
<text text-anchor="start" x="246.5" y="-53.8" font-family="Times,serif" font-size="14.00">score :integer</text>
<text text-anchor="start" x="246.5" y="-38.8" font-family="Times,serif" font-size="14.00">beer_id :integer</text>
<text text-anchor="start" x="246.5" y="-23.8" font-family="Times,serif" font-size="14.00">created_at :datetime</text>
<text text-anchor="start" x="246.5" y="-8.8" font-family="Times,serif" font-size="14.00">updated_at :datetime</text>
</g>
<!-- Beer&#45;&gt;Rating -->
<g id="edge3" class="edge"><title>Beer&#45;&gt;Rating</title>
<path fill="none" stroke="#0b8b56" d="M279.775,-136.406C281.857,-129.943 283.961,-123.411 286.025,-117.006"/>
<ellipse fill="none" stroke="#0b8b56" cx="278.473" cy="-140.447" rx="4.00001" ry="4.00001"/>
<polygon fill="#0b8b56" stroke="#0b8b56" points="286.158,-116.592 293.508,-108.454 287.691,-111.833 289.225,-107.074 289.225,-107.074 289.225,-107.074 287.691,-111.833 284.941,-105.694 286.158,-116.592 286.158,-116.592"/>
</g>
<!-- ActiveRecord::Base -->
<g id="node5" class="node"><title>ActiveRecord::Base</title>
<ellipse fill="none" stroke="black" cx="316" cy="-485" rx="84.2388" ry="18"/>
<text text-anchor="middle" x="316" y="-481.3" font-family="Times,serif" font-size="14.00">ActiveRecord::Base</text>
</g>
<!-- ActiveRecord::Base&#45;&gt;Brewery -->
<g id="edge2" class="edge"><title>ActiveRecord::Base&#45;&gt;Brewery</title>
<path fill="none" stroke="black" d="M303.252,-467.135C292.82,-453.335 277.437,-432.985 262.724,-413.52"/>
<polyline fill="none" stroke="black" points="259.4,-409.122 262.415,-413.111 "/>
</g>
<!-- ActiveRecord::Base&#45;&gt;Beer -->
<g id="edge4" class="edge"><title>ActiveRecord::Base&#45;&gt;Beer</title>
<path fill="none" stroke="black" d="M315.638,-466.924C314.618,-434.372 310.734,-361.39 296,-302 293.417,-291.59 289.966,-280.802 286.193,-270.381"/>
<polyline fill="none" stroke="black" points="284.439,-265.621 286.168,-270.313 "/>
</g>
<!-- ActiveRecord::Base&#45;&gt;Rating -->
<g id="edge5" class="edge"><title>ActiveRecord::Base&#45;&gt;Rating</title>
<path fill="none" stroke="black" d="M319.36,-466.896C328.66,-416.883 352.845,-266.693 334,-144 332.379,-133.448 329.737,-122.431 326.707,-111.887"/>
<polyline fill="none" stroke="black" points="325.29,-107.079 326.704,-111.875 "/>
</g>
</g>
</svg>
